<?xml version="1.0" standalone="no"?>
<!DOCTYPE svg PUBLIC "-//W3C//DTD SVG 20010904//EN"
 "http://www.w3.org/TR/2001/REC-SVG-20010904/DTD/svg10.dtd">
<svg version="1.0" xmlns="http://www.w3.org/2000/svg"
 width="1024.000000pt" height="1536.000000pt" viewBox="0 0 1024.000000 1536.000000"
 preserveAspectRatio="xMidYMid meet">

<g transform="translate(0.000000,1536.000000) scale(0.100000,-0.100000)"
fill="#000000" stroke="none">
<path d="M3507 10438 c-14 -22 -349 -624 -569 -1023 -150 -271 -890 -1607
-1153 -2080 -122 -220 -275 -495 -339 -612 l-117 -211 94 -154 c112 -181 307
-501 460 -753 60 -99 115 -186 121 -193 10 -10 23 7 63 80 28 51 136 248 241
438 104 190 233 426 287 525 54 99 110 203 125 230 49 90 324 593 490 900 460
848 545 1003 698 1280 91 165 181 328 199 362 l34 63 456 2 456 3 213 385
c118 212 221 407 229 434 43 142 -5 262 -128 317 l-52 24 -897 3 -897 3 -14
-23z"/>
<path d="M5996 10398 c-130 -236 -423 -760 -786 -1408 -634 -1132 -700 -1250
-737 -1317 l-35 -63 -443 0 -443 0 -63 -117 c-34 -65 -126 -235 -204 -378
-167 -305 -334 -622 -335 -632 0 -2 463 -3 1028 -3 1133 0 1095 -2 1195 62 63
40 105 98 207 283 45 83 95 171 111 196 15 26 103 181 194 345 92 165 250 445
350 624 593 1056 788 1404 875 1560 54 96 189 336 299 533 111 197 201 362
201 367 0 6 -257 10 -690 10 l-689 0 -35 -62z"/>
<path d="M7180 8548 c-77 -143 -140 -254 -544 -970 -84 -150 -193 -345 -241
-433 -49 -88 -166 -297 -260 -465 -95 -168 -227 -404 -295 -525 -271 -484
-366 -654 -549 -979 -105 -187 -191 -342 -191 -345 0 -3 665 -5 1477 -3 l1478
3 290 524 c159 288 291 529 293 534 3 8 -221 11 -742 11 -410 0 -746 3 -746 6
0 10 121 234 256 474 174 310 755 1348 907 1620 66 118 180 322 253 452 74
130 134 239 134 242 0 3 -324 6 -719 6 l-719 0 -82 -152z"/>
</g>
</svg>
